<?xml version="1.0" encoding="UTF-8"?>
<svg id="_レイヤー_2" data-name="レイヤー 2" xmlns="http://www.w3.org/2000/svg" xmlns:xlink="http://www.w3.org/1999/xlink" viewBox="0 0 250 250">
  <defs>
    <style>
      .cls-1 {
        fill: url(#_名称未設定グラデーション_50-2);
      }

      .cls-1, .cls-2, .cls-3, .cls-4, .cls-5, .cls-6 {
        stroke-width: 0px;
      }

      .cls-2 {
        fill: none;
      }

      .cls-3 {
        fill: url(#_名称未設定グラデーション_50);
      }

      .cls-4 {
        fill: url(#_名称未設定グラデーション_56);
      }

      .cls-5 {
        fill: url(#_名称未設定グラデーション_56-2);
      }

      .cls-6 {
        fill: url(#_名称未設定グラデーション_69);
      }
    </style>
    <linearGradient id="_名称未設定グラデーション_50" data-name="名称未設定グラデーション 50" x1="105.75" y1="32.99" x2="217.01" y2="144.25" gradientUnits="userSpaceOnUse">
      <stop offset="0" stop-color="#ffd187"/>
      <stop offset="1" stop-color="#ffac29"/>
    </linearGradient>
    <linearGradient id="_名称未設定グラデーション_69" data-name="名称未設定グラデーション 69" x1="148.02" y1="148.02" x2="96.97" y2="96.97" gradientUnits="userSpaceOnUse">
      <stop offset="0" stop-color="#ff7480"/>
      <stop offset="1" stop-color="#ffc05a"/>
    </linearGradient>
    <linearGradient id="_名称未設定グラデーション_50-2" data-name="名称未設定グラデーション 50" x1="77.18" y1="149.94" x2="144.25" y2="217.01" xlink:href="#_名称未設定グラデーション_50"/>
    <linearGradient id="_名称未設定グラデーション_56" data-name="名称未設定グラデーション 56" x1="32.99" y1="144.25" x2="100.06" y2="77.18" gradientUnits="userSpaceOnUse">
      <stop offset="0" stop-color="#ff7480"/>
      <stop offset="1" stop-color="#ff9fa7"/>
    </linearGradient>
    <linearGradient id="_名称未設定グラデーション_56-2" data-name="名称未設定グラデーション 56" x1="149.94" y1="172.82" x2="172.82" y2="149.94" xlink:href="#_名称未設定グラデーション_56"/>
  </defs>
  <g id="_レイヤー_1-2" data-name="レイヤー 1">
    <g>
      <rect class="cls-2" width="250" height="250"/>
      <g>
        <path class="cls-3" d="M170.52,125c0,15.02,12.22,27.24,27.24,27.24s27.24-12.22,27.24-27.24-12.22-27.24-27.24-27.24c-25.1,0-45.52-20.42-45.52-45.52,0-15.02-12.22-27.24-27.24-27.24s-27.24,12.22-27.24,27.24,12.22,27.24,27.24,27.24c25.1,0,45.52,20.42,45.52,45.52Z"/>
        <path class="cls-6" d="M99.14,99.14c-6.91,6.91-10.71,16.09-10.71,25.86s3.8,18.95,10.71,25.86c6.91,6.91,16.09,10.71,25.86,10.71s18.95-3.8,25.86-10.71c14.26-14.26,14.26-37.46,0-51.72-6.91-6.91-16.09-10.71-25.86-10.71s-18.95,3.8-25.86,10.71Z"/>
        <path class="cls-1" d="M125,170.52c-18.46,0-34.38-11.05-41.52-26.89-3.09,5.17-7.43,9.51-12.61,12.61,15.83,7.14,26.89,23.05,26.89,41.52,0,15.02,12.22,27.24,27.24,27.24s27.24-12.22,27.24-27.24-12.22-27.24-27.24-27.24Z"/>
        <path class="cls-4" d="M93.76,70.88c-7.14,15.83-23.06,26.89-41.52,26.89-15.02,0-27.24,12.22-27.24,27.24s12.22,27.24,27.24,27.24,27.24-12.22,27.24-27.24c0-18.46,11.05-34.38,26.89-41.52-5.17-3.09-9.51-7.43-12.61-12.61Z"/>
        <path class="cls-5" d="M166.52,143.64c-4.57,10.13-12.74,18.31-22.88,22.88,5.17,3.09,9.51,7.43,12.61,12.61,4.57-10.14,12.74-18.31,22.88-22.88-5.17-3.09-9.51-7.43-12.6-12.6Z"/>
      </g>
    </g>
  </g>
</svg>