<?xml version="1.0" encoding="UTF-8"?>
<svg id="_レイヤー_2" data-name="レイヤー 2" xmlns="http://www.w3.org/2000/svg" xmlns:xlink="http://www.w3.org/1999/xlink" viewBox="0 0 690 250">
  <defs>
    <style>
      .cls-1 {
        fill: #3f3f3f;
      }

      .cls-1, .cls-2, .cls-3, .cls-4, .cls-5, .cls-6, .cls-7 {
        stroke-width: 0px;
      }

      .cls-2 {
        fill: url(#_名称未設定グラデーション_50-2);
      }

      .cls-3 {
        fill: none;
      }

      .cls-4 {
        fill: url(#_名称未設定グラデーション_50);
      }

      .cls-5 {
        fill: url(#_名称未設定グラデーション_56);
      }

      .cls-6 {
        fill: url(#_名称未設定グラデーション_56-2);
      }

      .cls-7 {
        fill: url(#_名称未設定グラデーション_69);
      }
    </style>
    <linearGradient id="_名称未設定グラデーション_50" data-name="名称未設定グラデーション 50" x1="547.63" y1="32.99" x2="658.89" y2="144.25" gradientUnits="userSpaceOnUse">
      <stop offset="0" stop-color="#ffd187"/>
      <stop offset="1" stop-color="#ffac29"/>
    </linearGradient>
    <linearGradient id="_名称未設定グラデーション_69" data-name="名称未設定グラデーション 69" x1="589.9" y1="148.02" x2="538.85" y2="96.97" gradientUnits="userSpaceOnUse">
      <stop offset="0" stop-color="#ff7480"/>
      <stop offset="1" stop-color="#ffc05a"/>
    </linearGradient>
    <linearGradient id="_名称未設定グラデーション_50-2" data-name="名称未設定グラデーション 50" x1="519.06" y1="149.94" x2="586.13" y2="217.01" xlink:href="#_名称未設定グラデーション_50"/>
    <linearGradient id="_名称未設定グラデーション_56" data-name="名称未設定グラデーション 56" x1="474.87" y1="144.25" x2="541.94" y2="77.18" gradientUnits="userSpaceOnUse">
      <stop offset="0" stop-color="#ff7480"/>
      <stop offset="1" stop-color="#ff9fa7"/>
    </linearGradient>
    <linearGradient id="_名称未設定グラデーション_56-2" data-name="名称未設定グラデーション 56" x1="591.82" y1="172.82" x2="614.7" y2="149.94" xlink:href="#_名称未設定グラデーション_56"/>
  </defs>
  <g id="_レイヤー_1-2" data-name="レイヤー 1">
    <g>
      <rect class="cls-3" width="690" height="250"/>
      <g>
        <g>
          <path class="cls-1" d="M45.25,127.95h-12.9v21.16h-6.67v-48.2c0-.5.41-.91.91-.91h16.29c12.71,0,21.32,3.59,21.32,13.71,0,8.78-5.46,12.84-14.3,13.91l15.05,21.5h-6.68l-13.02-21.16ZM43.47,126.62c10.53,0,15-2.73,15-12.91,0-9.52-4.57-12.38-15.59-12.38h-10.53v25.29h11.12Z"/>
          <path class="cls-1" d="M87.34,130.03c0-14.64,8.87-19.97,19.6-19.97s19.6,5.32,19.6,19.97-8.87,19.97-19.6,19.97-19.6-5.32-19.6-19.97ZM120.44,129.98c0-14.27-4.13-18.79-13.51-18.79s-13.51,4.63-13.51,18.79,4.13,18.9,13.51,18.9,13.51-4.69,13.51-18.9Z"/>
          <path class="cls-1" d="M147.05,130.03c0-14.64,8.87-19.97,19.6-19.97s19.6,5.32,19.6,19.97-8.87,19.97-19.6,19.97-19.6-5.32-19.6-19.97ZM180.15,129.98c0-14.27-4.13-18.79-13.51-18.79s-13.51,4.63-13.51,18.79,4.13,18.9,13.51,18.9,13.51-4.69,13.51-18.9Z"/>
          <path class="cls-1" d="M212.31,100h5.5v47.78h24.43v1.33h-30.84v-48.2c0-.5.41-.91.91-.91Z"/>
          <path class="cls-1" d="M261.82,130.03c0-14.64,8.87-19.97,19.6-19.97s19.6,5.32,19.6,19.97-8.87,19.97-19.6,19.97-19.6-5.32-19.6-19.97ZM294.93,129.98c0-14.27-4.13-18.79-13.51-18.79s-13.51,4.63-13.51,18.79,4.13,18.9,13.51,18.9,13.51-4.69,13.51-18.9Z"/>
          <path class="cls-1" d="M358.32,145.08v-35.01h3.3v39.93h-1.87l-27.45-34.74v34.74h-5.65c-.5,0-.91-.41-.91-.91v-39.02h4.79l27.8,35.01Z"/>
          <path class="cls-1" d="M390.52,110.98c0-.5.41-.91.91-.91h26.52v1.08h-21.48v17.75h19.62v1.08h-19.62v18.94h22.12v1.08h-28.07v-39.02Z"/>
        </g>
        <g>
          <path class="cls-4" d="M612.4,125c0,15.02,12.22,27.24,27.24,27.24s27.24-12.22,27.24-27.24-12.22-27.24-27.24-27.24c-25.1,0-45.52-20.42-45.52-45.52,0-15.02-12.22-27.24-27.24-27.24s-27.24,12.22-27.24,27.24,12.22,27.24,27.24,27.24c25.1,0,45.52,20.42,45.52,45.52Z"/>
          <path class="cls-7" d="M541.02,99.14c-6.91,6.91-10.71,16.09-10.71,25.86s3.8,18.95,10.71,25.86c6.91,6.91,16.09,10.71,25.86,10.71s18.95-3.8,25.86-10.71c14.26-14.26,14.26-37.46,0-51.72-6.91-6.91-16.09-10.71-25.86-10.71s-18.95,3.8-25.86,10.71Z"/>
          <path class="cls-2" d="M566.88,170.52c-18.46,0-34.38-11.05-41.52-26.89-3.09,5.17-7.43,9.51-12.61,12.61,15.83,7.14,26.89,23.05,26.89,41.52,0,15.02,12.22,27.24,27.24,27.24s27.24-12.22,27.24-27.24-12.22-27.24-27.24-27.24Z"/>
          <path class="cls-5" d="M535.63,70.88c-7.14,15.83-23.06,26.89-41.52,26.89-15.02,0-27.24,12.22-27.24,27.24s12.22,27.24,27.24,27.24,27.24-12.22,27.24-27.24c0-18.46,11.05-34.38,26.89-41.52-5.17-3.09-9.51-7.43-12.61-12.61Z"/>
          <path class="cls-6" d="M608.4,143.64c-4.57,10.13-12.74,18.31-22.88,22.88,5.17,3.09,9.51,7.43,12.61,12.61,4.57-10.14,12.74-18.31,22.88-22.88-5.17-3.09-9.51-7.43-12.6-12.6Z"/>
        </g>
      </g>
    </g>
  </g>
</svg>